<svg width="78" height="51" viewBox="0 0 78 51" fill="none" xmlns="http://www.w3.org/2000/svg">
<path d="M8.8675 42.1102C8.8675 42.1102 11.5465 38.9309 12.6992 37.6112C22.1352 26.8089 23.9628 24.5514 34.3356 15.5243C35.2761 14.7058 37.7131 12.6884 38.8343 11.9038C38.858 11.8872 40.3342 10.8047 40.7579 11.1053C41.7217 11.7892 39.4341 16.6674 39.2905 16.9894C37.4879 21.0291 35.2795 24.6477 33.2454 28.4305C32.0573 30.6401 30.4378 33.1484 29.8672 35.9537C29.8561 36.0084 29.7734 36.5791 30.006 36.5639C30.403 36.5378 31.5115 35.7237 31.6344 35.6333C36.2363 32.2461 40.6888 28.4873 45.2967 25.1075C51.5117 20.5489 57.7915 16.104 64.2147 12.1044C65.102 11.5518 68.6091 9.45569 69.8428 8.88193" stroke="#F23568" stroke-width="16" stroke-linecap="round"/>
</svg>
